<?xml version="1.0" standalone="no"?>
<!DOCTYPE svg PUBLIC "-//W3C//DTD SVG 20010904//EN"
 "http://www.w3.org/TR/2001/REC-SVG-20010904/DTD/svg10.dtd">
<svg version="1.0" xmlns="http://www.w3.org/2000/svg"
 width="425.000000pt" height="425.000000pt" viewBox="0 0 425.000000 425.000000"
 preserveAspectRatio="xMidYMid meet">
<metadata>
Created by potrace 1.14, written by Peter Selinger 2001-2017
</metadata>
<g transform="translate(0.000000,425.000000) scale(0.100000,-0.100000)"
fill="#000000" stroke="none">
<path d="M795 4243 c-332 -42 -611 -256 -735 -561 -65 -159 -61 -67 -58 -1592
l3 -1385 29 -80 c109 -307 326 -513 630 -600 l88 -25 1368 0 1368 0 88 25
c359 102 617 396 664 758 7 56 10 495 8 1392 -3 1218 -5 1314 -21 1370 -82
279 -224 466 -448 589 -70 38 -116 57 -224 89 -70 21 -79 21 -1400 23 -731 1
-1343 0 -1360 -3z m2589 -1675 c-7 -51 -13 -96 -14 -100 0 -5 34 -8 75 -8 l76
0 -6 -32 c-3 -18 -9 -55 -13 -83 l-7 -50 -75 -5 -75 -5 -19 -146 c-10 -81 -16
-154 -13 -163 8 -20 56 -21 104 -1 20 8 37 14 38 13 1 -2 -3 -37 -9 -78 l-12
-75 -59 -24 c-77 -31 -184 -34 -233 -8 -66 36 -74 97 -42 322 11 77 20 145 20
150 0 6 -15 10 -32 10 l-33 0 3 50 c2 28 7 66 11 85 6 31 10 35 43 38 36 3 37
5 49 58 7 30 17 59 24 64 13 11 184 78 201 79 8 1 7 -26 -2 -91z m-440 -122
c89 -52 101 -119 66 -380 -11 -81 -20 -175 -20 -207 l0 -59 -110 0 c-83 0
-108 3 -106 13 3 6 7 27 10 45 l6 33 -41 -35 c-79 -67 -213 -88 -279 -43 -61
41 -75 70 -75 157 0 71 3 82 30 122 22 31 50 53 99 78 67 34 72 35 187 35
l119 0 0 41 c0 60 -25 79 -104 78 -34 -1 -87 -10 -121 -23 -33 -11 -64 -22
-69 -24 -4 -1 -19 28 -31 65 l-23 66 46 20 c156 66 322 73 416 18z m-1721 -14
c48 -21 100 -76 122 -129 54 -128 11 -318 -94 -423 -63 -63 -127 -92 -216 -98
-167 -11 -274 80 -291 245 -20 186 106 381 273 423 53 13 156 4 206 -18z m730
17 c51 -14 77 -57 77 -129 1 -55 1 -55 18 -30 34 50 97 112 139 137 50 29 126
36 165 14 65 -34 68 -110 14 -423 l-39 -228 -110 0 -109 0 6 33 c23 129 57
399 53 412 -18 45 -93 -7 -137 -95 -22 -43 -60 -245 -60 -317 l0 -33 -120 0
c-66 0 -120 1 -120 3 0 2 14 90 30 195 17 106 30 208 30 227 0 30 -3 35 -24
35 -35 0 -81 -43 -111 -104 -19 -38 -32 -94 -48 -204 l-22 -152 -115 0 -116 0
33 208 c18 114 35 257 39 318 l7 111 86 7 c47 4 97 8 111 9 l25 2 -1 -91 0
-91 42 57 c46 63 110 113 165 128 45 13 48 14 92 1z m2030 -26 c208 -112 160
-486 -78 -611 -44 -24 -62 -27 -145 -27 -83 0 -101 3 -140 25 -53 30 -105 96
-121 153 -6 23 -9 80 -7 127 10 222 174 380 376 365 43 -3 80 -13 115 -32z
m-3207 -45 l-8 -63 -111 -120 c-61 -66 -131 -142 -156 -168 l-46 -48 133 3
134 3 -7 -30 c-3 -16 -11 -60 -17 -97 l-12 -68 -273 0 -273 0 0 58 0 59 157
169 156 169 -119 3 -119 3 14 94 15 95 269 0 270 0 -7 -62z m2804 -971 c30
-13 96 -51 147 -85 94 -64 179 -105 246 -117 l37 -7 0 -107 c0 -400 -153 -675
-456 -822 l-84 -41 -47 16 c-75 26 -179 92 -254 163 -112 106 -183 228 -224
388 -19 73 -38 305 -30 361 6 40 7 41 66 58 75 21 148 57 214 105 116 86 174
109 270 110 40 0 78 -7 115 -22z"/>
<path d="M2625 2082 c-62 -38 -80 -90 -46 -134 41 -52 121 -45 179 15 32 33
66 112 56 128 -3 5 -40 9 -82 9 -57 0 -85 -5 -107 -18z"/>
<path d="M1016 2250 c-32 -39 -48 -97 -49 -178 -1 -100 48 -147 106 -102 43
34 60 84 61 181 1 72 -2 90 -18 108 -28 31 -69 27 -100 -9z"/>
<path d="M3772 2255 c-39 -33 -62 -102 -62 -185 0 -53 4 -73 21 -94 65 -83
157 43 147 202 -3 53 -8 68 -27 83 -31 25 -44 24 -79 -6z"/>
<path d="M3352 1350 c-24 -11 -79 -45 -123 -75 -77 -55 -176 -106 -231 -119
-26 -6 -28 -10 -28 -59 0 -81 18 -233 36 -301 36 -140 129 -290 227 -367 50
-38 141 -97 103 -66 -17 14 -8 16 100 19 137 3 167 1 158 -14 -14 -23 61 30
122 85 151 139 234 352 234 608 l0 87 -67 23 c-37 13 -110 53 -163 88 -137 92
-182 111 -260 111 -43 0 -80 -7 -108 -20z m-119 -301 c30 -16 37 -28 37 -66 0
-32 -2 -33 -40 -33 -36 0 -40 3 -40 25 0 14 -4 25 -10 25 -5 0 -10 -11 -10
-25 0 -18 11 -32 39 -49 55 -35 71 -62 71 -118 0 -56 -21 -84 -73 -93 -72 -14
-133 37 -125 104 3 23 8 26 43 26 38 0 40 -2 43 -32 4 -41 22 -44 22 -4 0 23
-8 34 -35 51 -77 48 -100 126 -50 175 27 28 89 34 128 14z m227 -11 c0 -7 9
-71 20 -142 28 -183 29 -176 -25 -176 -43 0 -45 1 -45 30 0 20 -5 30 -15 30
-10 0 -15 -10 -15 -30 0 -29 -1 -30 -50 -30 -47 0 -50 1 -45 23 2 12 11 76 20
142 23 180 15 165 90 165 45 0 65 -4 65 -12z m200 -23 c0 -31 -3 -35 -25 -35
-20 0 -25 -5 -25 -25 0 -20 5 -25 25 -25 22 0 25 -4 25 -35 0 -31 -3 -35 -25
-35 -24 0 -25 -2 -25 -71 l0 -70 -47 3 -48 3 -3 163 -2 162 75 0 75 0 0 -35z
m168 3 c-2 -28 -8 -34 -30 -36 -22 -3 -28 -9 -28 -27 0 -18 6 -24 28 -27 23
-3 27 -8 27 -33 0 -25 -4 -30 -27 -33 -25 -3 -28 -8 -28 -38 0 -32 2 -34 36
-34 34 0 35 -1 32 -32 l-3 -33 -77 -3 -78 -3 0 166 0 165 76 0 75 0 -3 -32z"/>
<path d="M3388 898 c-3 -24 -1 -47 3 -52 5 -6 9 13 9 42 0 63 -6 68 -12 10z"/>
</g>
</svg>
