<?xml version="1.0" standalone="no"?>
<!DOCTYPE svg PUBLIC "-//W3C//DTD SVG 20010904//EN"
 "http://www.w3.org/TR/2001/REC-SVG-20010904/DTD/svg10.dtd">
<svg version="1.0" xmlns="http://www.w3.org/2000/svg"
 width="225.000000pt" height="225.000000pt" viewBox="0 0 225.000000 225.000000"
 preserveAspectRatio="xMidYMid meet">
<metadata>
Created by potrace 1.14, written by Peter Selinger 2001-2017
</metadata>
<g transform="translate(0.000000,225.000000) scale(0.100000,-0.100000)"
fill="#000000" stroke="none">
<path d="M257 2239 c-96 -23 -182 -94 -226 -188 l-26 -56 0 -870 0 -870 26
-56 c34 -72 96 -134 168 -168 l56 -26 348 -3 347 -3 0 400 0 401 -145 0 -145
0 2 163 3 162 141 3 142 3 4 187 c5 204 12 235 70 325 38 59 101 109 176 139
50 19 75 22 197 23 77 0 161 -4 188 -8 l47 -8 0 -139 0 -138 -114 -3 c-132 -5
-156 -15 -193 -89 -20 -39 -23 -59 -23 -167 l0 -123 155 0 c182 0 165 24 132
-185 l-22 -140 -133 -3 -132 -3 0 -400 0 -400 348 3 347 3 56 26 c72 34 134
96 168 168 l26 56 0 870 0 870 -26 56 c-34 72 -96 134 -168 168 l-56 26 -850
2 c-476 1 -867 -3 -888 -8z"/>
</g>
</svg>
